# AST/ASF file generated using VICON BodyLanguage
# -----------------------------------------------
:version 1.10
:name VICON
:units
  mass 1.0
  length 0.45
  angle deg
:documentation
   .ast/.asf automatically generated from VICON data using
   VICON BodyBuilder and BodyLanguage model FoxedUp or BRILLIANT.MOD
:root
   order TX TY TZ RX RY RZ
   axis XYZ
   position 0 0 0  
   orientation 0 0 0 
:bonedata
  begin
     id 1 
     name lhipjoint
     direction 0.662698 -0.695252 0.27831 
     length 2.53073 
     axis 0 0 0  XYZ
  end
  begin
     id 2 
     name lfemur
     direction 0.34202 -0.939693 0  
     length 7.16147  
     axis 0 0 20  XYZ
    dof rx ry rz
    limits (-160.0 20.0)
           (-70.0 70.0)
           (-60.0 70.0)
  end
  begin
     id 3 
     name ltibia
     direction 0.34202 -0.939693 0   
     length 7.63967   
     axis 0 0 20   XYZ
    dof rx
    limits (-10.0 170.0)
  end
  begin
     id 4 
     name lfoot
     direction 0.0938457 -0.257721 0.961651   
     length 1.89793   
     axis -90 7.62852e-016 20   XYZ
    dof rx rz
    limits (-45.0 90.0)
           (-70.0 20.0)
  end
  begin
     id 5 
     name ltoes
     direction -0.00116841 -0.0030592 0.999995   
     length 0.955649   
     axis -90 7.62852e-016 20   XYZ
    dof rx
    limits (-90.0 20.0)
  end
  begin
     id 6 
     name rhipjoint
     direction -0.649445 -0.705948 0.282592   
     length 2.49238  
     axis 0 0 0  XYZ 
  end
  begin
     id 7 
     name rfemur
     direction -0.34202 -0.939693 0   
     length 6.90728   
     axis 0 0 -20   XYZ
    dof rx ry rz
    limits (-160.0 20.0)
           (-70.0 70.0)
           (-70.0 60.0)
  end
  begin
     id 8 
     name rtibia
     direction -0.34202 -0.939693 0   
     length 7.72868   
     axis 0 0 -20   XYZ
    dof rx
    limits (-10.0 170.0)
 end
 begin
     id 9 
     name rfoot
     direction -0.0920068 -0.252865 0.963117   
     length 1.97476  
     axis -90 -7.62852e-016 -20   XYZ
    dof rx rz
    limits (-45.0 90.0)
           (-20.0 70.0)
  end
  begin
     id 10 
     name rtoes
     direction 0.000391322 0.00230649 0.999997   
     length 0.992641   
     axis -90 -7.62852e-016 -20   XYZ
    dof rx
    limits (-90.0 20.0)
  end
  begin
     id 11 
     name lowerback
     direction -0.00875327 0.998321 -0.0572635   
     length 2.20024   
     axis 0 0 0   XYZ
    dof rx ry rz
    limits (-20.0 45.0)
           (-30.0 30.0)
           (-30.0 30.0)
  end
  begin
     id 12 
     name upperback
     direction 0.00753931 0.999972 -0.000360425   
     length 2.20538   
     axis 0 0 0   XYZ
    dof rx ry rz
    limits (-20.0 45.0)
           (-30.0 30.0)
           (-30.0 30.0)
  end
  begin
     id 13 
     name thorax
     direction 0.0117767 0.999601 0.0256663   
     length 2.21508   
     axis 0 0 0   XYZ
    dof rx ry rz
    limits (-20.0 45.0)
           (-30.0 30.0)
           (-30.0 30.0)
  end
  begin
     id 14 
     name lowerneck
     direction 0.060228 0.994909 0.0807986   
     length 1.7607   
     axis 0 0 0   XYZ
    dof rx ry rz
    limits (-20.0 45.0)
           (-30.0 30.0)
           (-30.0 30.0)
  end
  begin
     id 15 
     name upperneck
     direction -0.0563647 0.959594 -0.275685   
     length 1.75612   
     axis 0 0 0   XYZ
    dof rx ry rz
    limits (-20.0 45.0)
           (-30.0 30.0)
           (-30.0 30.0)
  end
  begin
     id 16
     name head
     direction -0.0161544 0.99458 -0.102714  
     length 1.79288  
     axis 0 0 0   XYZ
    dof rx ry rz
    limits (-20.0 45.0)
           (-30.0 30.0)
           (-30.0 30.0)
  end
  begin
     id 17 
     name lclavicle
     direction 0.93913 0.332189 -0.087669  
     length 3.52087  
     axis 0 0 0   XYZ
    dof ry rz
    limits (-20.0 10.0)
           (0.0 20.0)
  end
  begin
     id 18 
     name lhumerus
     direction 1 -4.48974e-011 -2.70836e-027   
     length 5.35289   
     axis -180 -30 -90   XYZ
    dof rx ry rz
    limits (-60.0 90.0)
           (-90.0 90.0)
           (-90.0 90.0)
  end
  begin
     id 19
     name lradius
     direction 1 -4.48961e-011 -9.76021e-027   
     length 3.27727   
     axis -180 -30 -90   XYZ
    dof rx
    limits (-10.0 170.0)
  end
  begin
     id 20
     name lwrist
     direction 1 -4.49103e-011 -2.23668e-026   
     length 1.63864   
     axis 1.44924e-014 90 90   XYZ
    dof ry
    limits (-180.0 0.0)
 end
  begin
     id 21 
     name lhand
     direction 1 3.0697e-005 0.000161777   
     length 0.54443   
     axis 2.85318e-014 90 90   XYZ
    dof rx rz
    limits (-90.0 90.0)
           (-45.0 45.0)
  end
  begin
     id 22 
     name lfingers
     direction 1 -4.49027e-011 -8.9447e-026   
     length 0.438912   
     axis 5.70628e-014 90 90   XYZ
    dof rx
    limits (0.0 90.0)
  end
  begin
     id 23
     name lthumb
     direction 0.707058 2.6516e-005 0.707156   
     length 0.630274   
     axis -90 45 -3.53137e-014   XYZ
    dof rx rz
    limits (-45.0 45.0)
           (-45.0 45.0)
  end
  begin
     id 24 
     name rclavicle
     direction -0.95274 0.284984 -0.105215   
     length 3.43401  
     axis 0 0 0   XYZ 
    dof ry rz
    limits (-10.0 20.0)
           (-20.0 0.0)
  end
  begin
     id 25 
     name rhumerus
     direction -0.999999 -0.000575019 -0.00106829  
     length 5.52077   
     axis -180 30 90   XYZ
    dof rx ry rz
    limits (-90.0 60.0)
           (-90.0 90.0)
           (-90.0 90.0)
  end
  begin
     id 26 
     name rradius
     direction -1 -4.4879e-011 -6.35415e-027   
     length 3.32364   
     axis -180 30 90   XYZ
    dof rx
    limits (-10.0 170.0)
  end
  begin
     id 27 
     name rwrist
     direction -1 -4.49048e-011 -9.98542e-027   
     length 1.66182   
     axis 6.32482e-015 -90 -90   XYZ
    dof ry
    limits (-180.0 0.0)
  end
  begin
     id 28
     name rhand
     direction -1 -4.48978e-011 -1.99771e-026   
     length 0.732235   
     axis 1.27479e-014 -90 -90   XYZ
    dof rx rz
    limits (-90.0 90.0)
           (-45.0 45.0)
  end
  begin
     id 29
     name rfingers
     direction -1 -4.49144e-011 -3.99245e-026   
     length 0.590347   
     axis 2.5496e-014 -90 -90   XYZ
    dof rx
    limits (0.0 90.0)
  end
  begin
     id 30
     name rthumb
     direction -0.707107 -6.35121e-011 0.707107   
     length 0.847624   
     axis -90 -45 -2.82974e-014   XYZ
    dof rx rz
    limits (-45.0 45.0)
           (-45.0 45.0)
  end
:hierarchy
  begin
    root lhipjoint rhipjoint lowerback
    lhipjoint lfemur
    lfemur ltibia
    ltibia lfoot
    lfoot ltoes
    rhipjoint rfemur
    rfemur rtibia
    rtibia rfoot
    rfoot rtoes
    lowerback upperback
    upperback thorax
    thorax lowerneck lclavicle rclavicle
    lowerneck upperneck
    upperneck head
    lclavicle lhumerus
    lhumerus lradius
    lradius lwrist
    lwrist lhand lthumb
    lhand lfingers
    rclavicle rhumerus
    rhumerus rradius
    rradius rwrist
    rwrist rhand rthumb
    rhand rfingers
  end

#!OML:ASF G:\Work\Work\Patient Classification 1\Elijah\terrain1\Elijah.ASF
:FULLY-SPECIFIED
:DEGREES
62
root 16.0473 24.4686 -3.49193 5.77514 0.495146 0.920285
lowerback 5.91704 -0.602444 -5.84381
upperback 1.24025 -1.20196 -1.83801
thorax -1.95666 -0.571396 1.46991
lowerneck -14.8945 14.797 10.8685
upperneck 33.9746 24.0658 -12.3499
head 18.3119 9.76552 -2.11776
rclavicle 9.34288e-015 1.03368e-014
rhumerus -40.9656 -12.8271 -78.9389
rradius 27.5544
rwrist 4.81673
rhand -11.1599 22.3383
rfingers 7.12502
rthumb 14.8665 -7.10832
lclavicle 9.34288e-015 1.03368e-014
lhumerus -22.4448 27.8234 75.1093
lradius 26.4911
lwrist -1.82634
lhand -12.7209 26.1
lfingers 7.12502
lthumb 13.3623 55.6515
rfemur -38.9526 -14.7154 24.9925
rtibia 52.8601
rfoot 1.14495 -3.97995
rtoes -17.7718
lfemur 0.122187 2.24297 -24.9343
ltibia 17.9032
lfoot -0.0517339 -6.13834
ltoes -19.6543
63
root 16.035 24.4442 -3.38348 5.96862 0.947401 1.28362
lowerback 5.97801 -0.854282 -6.58656
upperback 0.530013 -1.6198 -1.61848
thorax -2.67176 -0.73914 2.14981
lowerneck -12.5967 14.5975 11.6367
upperneck 33.5819 23.9465 -13.1401
head 17.8184 9.89764 -2.77513
rclavicle -1.18277e-014 5.56597e-015
rhumerus -42.1198 -11.9439 -78.6272
rradius 27.5271
rwrist 4.61605
rhand -11.0423 21.9538
rfingers 7.12502
rthumb 14.9797 -7.48444
lclavicle -1.18277e-014 5.56597e-015
lhumerus -24.5707 28.1835 74.1044
lradius 26.5308
lwrist -1.966
lhand -12.6915 26.4483
lfingers 7.12502
lthumb 13.3905 55.998
rfemur -37.7726 -14.7408 24.7094
rtibia 48.3558
rfoot 0.766543 -4.05544
rtoes -18.97
lfemur 0.0169607 2.06396 -25.1944
ltibia 18.4571
lfoot -0.671965 -6.54265
ltoes -19.9484
64
root 16.0115 24.4272 -3.27407 5.99248 1.64518 1.32913
lowerback 5.83212 -0.917187 -6.21834
upperback 0.860891 -1.65406 -1.78273
thorax -2.2589 -0.778594 1.77028
lowerneck -13.7331 14.8668 11.1921
upperneck 33.5332 24.4082 -13.1118
head 18.0746 9.95373 -2.48584
rclavicle -3.97569e-016 -2.22639e-014
rhumerus -41.5977 -12.6746 -78.836
rradius 27.4793
rwrist 4.54871
rhand -11.0869 21.5544
rfingers 7.12502
rthumb 14.9368 -7.88703
lclavicle -3.97569e-016 -2.22639e-014
lhumerus -24.1451 28.0977 73.9885
lradius 26.1466
lwrist -2.20293
lhand -12.6337 25.0609
lfingers 7.12502
lthumb 13.4463 54.6069
rfemur -36.1496 -14.5877 24.6836
rtibia 43.6814
rfoot 0.659779 -4.30013
rtoes -18.8753
lfemur 0.153403 1.828 -24.9951
ltibia 18.8365
lfoot -0.656395 -6.97987
ltoes -19.4264
65
root 16.0072 24.3909 -3.19056 6.23744 0.989527 1.25272
lowerback 5.59258 -0.68833 -6.08151
upperback 0.676658 -1.33108 -1.73999
thorax -2.34219 -0.613688 1.71232
lowerneck -12.7277 14.7958 11.6085
upperneck 33.1327 24.4541 -13.8049
head 17.8502 10.0331 -2.90374
rclavicle -8.94531e-015 7.95139e-016
rhumerus -41.7211 -12.4127 -78.888
rradius 27.6304
rwrist 4.146
rhand -10.9914 21.3422
rfingers 7.12502
rthumb 15.0288 -8.09231
lclavicle -8.94531e-015 7.95139e-016
lhumerus -24.5102 28.5249 73.6465
lradius 25.6969
lwrist -2.11252
lhand -13.2326 25.0023
lfingers 7.12502
lthumb 12.869 54.5856
rfemur -35.0263 -13.475 24.7492
rtibia 38.9314
rfoot 1.30468 -3.97224
rtoes -18.5571
lfemur 0.0190274 2.08674 -25.0462
ltibia 19.2404
lfoot -0.843946 -6.5198
ltoes -18.7253
66
root 15.9952 24.3655 -3.07481 6.28531 1.26643 1.39713
lowerback 5.48977 -0.773892 -6.16251
upperback 0.4855 -1.45035 -1.7077
thorax -2.47109 -0.665049 1.79919
lowerneck -13.0156 14.4133 11.3932
upperneck 34.2693 23.8042 -12.9664
head 18.2042 9.77503 -2.68775
rclavicle 4.57205e-015 1.66979e-014
rhumerus -42.1625 -12.1417 -78.8801
rradius 27.9395
rwrist 3.80464
rhand -10.7608 20.8123
rfingers 7.12502
rthumb 15.2509 -8.60548
lclavicle 4.57205e-015 1.66979e-014
lhumerus -25.0288 28.3696 73.4212
lradius 25.8117
lwrist -1.55632
lhand -13.7339 27.7498
lfingers 7.12502
lthumb 12.3857 57.3629
rfemur -33.3834 -13.2648 24.5705
rtibia 34.133
rfoot 1.97412 -3.69024
rtoes -19.0156
lfemur 0.186986 2.15801 -25.053
ltibia 19.7801
lfoot -1.1784 -6.84309
ltoes -17.3432
67
root 15.9907 24.3371 -2.95506 6.33358 1.23614 1.43733
lowerback 5.49967 -0.843901 -6.27808
upperback 0.0597988 -1.56946 -1.56759
thorax -2.90249 -0.701988 2.0217
lowerneck -12.3021 14.962 11.5826
upperneck 34.2088 24.8392 -13.2883
head 18.3048 10.2219 -2.63284
rclavicle -1.80894e-014 -1.35174e-014
rhumerus -43.0371 -11.4662 -78.7878
rradius 28.2135
rwrist 3.68774
rhand -10.8587 20.8928
rfingers 7.12502
rthumb 15.1566 -8.53216
lclavicle -1.80894e-014 -1.35174e-014
lhumerus -26.4111 29.2036 72.4292
lradius 25.3933
lwrist -1.98791
lhand -14.2424 26.397
lfingers 7.12502
lthumb 11.8954 56.0391
rfemur -31.7492 -12.9653 24.5189
rtibia 29.3921
rfoot 3.1849 -3.27713
rtoes -20.3048
lfemur 0.309931 2.37703 -25.0424
ltibia 20.4393
lfoot -1.59435 -6.97367
ltoes -16.3719
68
root 15.9805 24.3056 -2.84914 6.59271 1.13821 1.44194
lowerback 5.28797 -0.739686 -6.05397
upperback 0.0955819 -1.3999 -1.62445
thorax -2.76645 -0.625758 1.82106
lowerneck -12.9388 14.9789 11.4361
upperneck 34.3027 24.8891 -13.2759
head 18.5 10.1751 -2.54315
rclavicle 9.93923e-017 -1.59028e-015
rhumerus -42.9826 -11.5114 -78.955
rradius 28.5359
rwrist 3.42
rhand -10.7762 21.4421
rfingers 7.12502
rthumb 15.236 -7.97683
lclavicle 9.93923e-017 -1.59028e-015
lhumerus -26.2419 29.9316 72.0927
lradius 24.7917
lwrist -2.57262
lhand -14.3039 26.4444
lfingers 7.12502
lthumb 11.836 56.0899
rfemur -30.374 -12.2652 24.5127
rtibia 24.8034
rfoot 4.43471 -3.37614
rtoes -20.8866
lfemur 0.207294 2.39549 -25.0356
ltibia 20.8781
lfoot -1.83919 -6.76866
ltoes -16.8807
69
root 15.9696 24.2717 -2.74779 6.89985 0.895395 1.53558
lowerback 4.35393 -0.528824 -5.80032
upperback 0.604869 -1.01035 -1.74554
thorax -1.75074 -0.470733 1.51084
lowerneck -14.0475 15.0929 10.8296
upperneck 34.2434 25.071 -13.09
head 18.6201 10.119 -2.23556
rclavicle 6.95746e-015 5.56597e-015
rhumerus -42.0605 -11.8935 -79.2193
rradius 28.7487
rwrist 3.04381
rhand -10.6381 21.4796
rfingers 7.12502
rthumb 15.3691 -7.9292
lclavicle 6.95746e-015 5.56597e-015
lhumerus -25.1274 30.2324 72.4912
lradius 24.424
lwrist -2.7707
lhand -14.0864 27.3646
lfingers 7.12502
lthumb 12.0458 56.9979
rfemur -29.0029 -11.4787 24.4266
rtibia 20.388
rfoot 5.32734 -3.74125
rtoes -20.611
lfemur 0.0104566 2.49831 -25.1469
ltibia 21.3208
lfoot -2.06523 -6.59438
ltoes -16.7791
70
root 15.9485 24.2426 -2.62102 6.8585 1.14951 1.79217
lowerback 4.00769 -0.569734 -6.01955
upperback 0.5158 -1.05242 -1.77752
thorax -1.64243 -0.491563 1.59806
lowerneck -13.2033 15.1104 11.103
upperneck 34.0482 25.1515 -13.3571
head 18.4273 10.2264 -2.43299
rclavicle 1.88845e-015 -1.19271e-014
rhumerus -42.4546 -11.6139 -79.3773
rradius 29.0746
rwrist 2.82807
rhand -10.6356 21.2417
rfingers 7.12502
rthumb 15.3715 -8.16689
lclavicle 1.88845e-015 -1.19271e-014
lhumerus -25.6274 30.5118 71.9118
lradius 23.9746
lwrist -2.97636
lhand -14.067 27.2598
lfingers 7.12502
lthumb 12.0645 56.892
rfemur -27.0024 -11.021 24.084
rtibia 16.1526
rfoot 5.93018 -4.23836
rtoes -20.6567
lfemur 0.306351 2.60874 -25.206
ltibia 21.741
lfoot -2.26113 -7.03729
ltoes -15.5073
71
root 15.9296 24.2176 -2.50007 7.0044 1.47572 2.05008
lowerback 3.51686 -0.560428 -6.07404
upperback 0.506682 -1.00495 -1.89143
thorax -1.3811 -0.474449 1.50212
lowerneck -12.7903 14.9977 11.4316
upperneck 33.8403 25.0204 -13.7141
head 18.3289 10.2163 -2.69888
rclavicle 4.96962e-016 -2.3059e-014
rhumerus -42.6853 -11.751 -79.5026
rradius 29.4646
rwrist 2.80847
rhand -10.5748 20.8802
rfingers 7.12502
rthumb 15.4301 -8.52386
lclavicle 4.96962e-016 -2.3059e-014
lhumerus -25.6305 31.1478 71.3405
lradius 23.0371
lwrist -3.77295
lhand -14.1567 26.3373
lfingers 7.12502
lthumb 11.978 55.9746
rfemur -25.2581 -10.4889 23.7471
rtibia 12.1269
rfoot 6.72369 -4.74366
rtoes -20.3736
lfemur 0.407537 2.65899 -25.2679
ltibia 22.0429
lfoot -2.26499 -7.50925
ltoes -14.7984
